<svg width="53" height="53" viewBox="0 0 53 53" fill="none" xmlns="http://www.w3.org/2000/svg">
<path d="M38.9219 3.41602C32.6427 3.41602 28.6122 7.76491 26.5 11.6816C24.3878 7.76481 20.3573 3.41602 14.0781 3.41602C6.11125 3.41602 0 9.88015 0 18.4535C0 20.6905 0.447912 22.7557 1.27262 24.7402H13.1183L15.7946 19.3875C16.3223 18.3352 18.0448 18.3352 18.5726 19.3875L23.3945 29.0316L25.111 25.5986C25.6388 24.5462 27.3612 24.5462 27.889 25.5986L29.6055 29.0316L34.4274 19.3876C34.9552 18.3353 36.6777 18.3353 37.2054 19.3876L39.8817 24.7402H51.7274C52.5521 22.7557 53 20.6905 53 18.4535C53 9.88015 46.8887 3.41602 38.9219 3.41602Z" fill="black" fill-opacity="0.8"/>
<path d="M38.922 27.8459C38.3336 27.8459 37.7968 27.5138 37.533 26.9877L35.8165 23.5547L30.9945 33.1986C30.7307 33.7248 30.1939 34.0569 29.6055 34.0569C29.0172 34.0569 28.4804 33.7248 28.2166 33.1986L26.5001 29.7656L24.7836 33.1986C24.2559 34.251 22.5334 34.251 22.0056 33.1986L17.1837 23.5547L15.4672 26.9877C15.2033 27.5138 14.6666 27.8459 14.0782 27.8459H2.90234C6.09818 32.8741 11.8538 37.6502 19.0533 43.7266C21.0745 45.4324 23.2247 47.2475 25.4825 49.2051C25.7752 49.4583 26.1376 49.5842 26.5 49.5842C26.8624 49.5842 27.2248 49.4583 27.5174 49.2051C29.7753 47.2475 31.9254 45.4325 33.9467 43.7266C41.1463 37.6502 46.9018 32.8741 50.0976 27.8459H38.922Z" fill="black" fill-opacity="0.8"/>
</svg>
