<svg width="309" height="57" viewBox="0 0 309 57" fill="none" xmlns="http://www.w3.org/2000/svg">
<g clip-path="url(#clip0)">
<path fill-rule="evenodd" clip-rule="evenodd" d="M71.0275 43.9507V43.9797H47.8433L47.8722 43.9507H71.0275Z" fill="#ECD247"/>
<path d="M17.6056 27.3716H7.48779V48.8406H17.6056V27.3716Z" fill="#F4C602"/>
<path fill-rule="evenodd" clip-rule="evenodd" d="M100.976 23.3208V53.7015H90.8586V43.9797H86.4067V32.2325H90.8586V23.3208H100.976Z" fill="#F4C602"/>
<path fill-rule="evenodd" clip-rule="evenodd" d="M72.5019 11.371L84.3831 19.27V50.866L73.4559 43.9797L73.398 26.5614L67.0093 22.3081L60.6496 18.0548L54.2609 22.3081L47.8722 26.5614V32.2614H71.0276V43.9507H47.8722L47.8433 43.9797H47.9589L36.8871 50.866V43.9797H30.1515V53.7015H20.0337V23.3208H30.1515V32.2325H36.8871V19.27L48.7683 11.371L60.6496 3.44312L72.5019 11.371Z" fill="#F4C602"/>
<path d="M113.523 27.3716H103.405V48.8406H113.523V27.3716Z" fill="#F4C602"/>
<path fill-rule="evenodd" clip-rule="evenodd" d="M71.0275 43.9507V43.9797H47.8433L47.8722 43.9507H71.0275Z" fill="#ECD247"/>
<path d="M135.663 12.5122C135.18 12.5122 134.757 12.6333 134.395 12.8756C134.033 13.1178 133.65 13.5619 133.288 14.2483L125.821 27.9752C125.74 28.1367 125.72 28.2578 125.76 28.3587C125.801 28.4596 125.921 28.5 126.123 28.5H129.081C129.323 28.5 129.504 28.3991 129.605 28.1972L131.175 25.25H141.882L143.492 28.1972C143.593 28.3991 143.754 28.5 144.016 28.5H146.914C147.095 28.5 147.216 28.4596 147.236 28.3587C147.276 28.2578 147.256 28.1367 147.175 27.9752L139.648 14.2483C139.266 13.5619 138.883 13.0976 138.481 12.8756C138.078 12.6535 137.595 12.5122 137.031 12.5122H135.663ZM136.166 15.9237C136.226 15.8228 136.307 15.7623 136.408 15.7623H136.548C136.649 15.7623 136.73 15.8228 136.79 15.9237L140.413 22.6055H132.583L136.166 15.9237Z" fill="white"/>
<path d="M144.85 12.5122C144.655 12.5122 144.538 12.5728 144.499 12.6535C144.46 12.7544 144.479 12.8756 144.557 13.0371L151.868 26.764C152.239 27.4705 152.609 27.9348 152.98 28.1568C153.35 28.3789 153.818 28.5 154.403 28.5H155.69C156.158 28.5 156.567 28.3789 156.918 28.1568C157.269 27.9348 157.639 27.4705 157.99 26.764L165.223 13.0371C165.301 12.8756 165.321 12.7544 165.282 12.6535C165.243 12.5526 165.145 12.5122 164.97 12.5122H162.084C161.831 12.5122 161.675 12.6131 161.577 12.815L155.222 25.0885C155.163 25.1894 155.085 25.25 154.988 25.25H154.871C154.734 25.25 154.656 25.1894 154.598 25.0885L148.145 12.815C148.086 12.7141 148.028 12.6333 147.95 12.593C147.891 12.5526 147.774 12.5324 147.638 12.5324H144.85V12.5122Z" fill="white"/>
<path d="M172.822 12.5122C172.354 12.5122 171.945 12.6333 171.595 12.8756C171.244 13.1178 170.874 13.5619 170.523 14.2483L163.297 27.9752C163.219 28.1367 163.2 28.2578 163.239 28.3587C163.278 28.4596 163.395 28.5 163.589 28.5H166.453C166.686 28.5 166.862 28.3991 166.959 28.1972L168.478 25.25H178.84L180.399 28.1972C180.496 28.3991 180.652 28.5 180.905 28.5H183.71C183.885 28.5 184.002 28.4596 184.021 28.3587C184.06 28.2578 184.041 28.1367 183.963 27.9752L176.678 14.2483C176.308 13.5619 175.938 13.0976 175.549 12.8756C175.159 12.6535 174.692 12.5122 174.146 12.5122H172.822ZM173.309 15.9237C173.367 15.8228 173.445 15.7623 173.542 15.7623H173.679C173.776 15.7623 173.854 15.8228 173.912 15.9237L177.418 22.6055H169.842L173.309 15.9237Z" fill="white"/>
<path d="M188.196 12.5122C187.485 12.5122 186.977 12.6737 186.631 12.9967C186.286 13.3197 186.123 13.9455 186.123 14.874V27.9752C186.123 28.3183 186.306 28.4798 186.652 28.4798H189.071C189.416 28.4798 189.579 28.3183 189.579 27.9752V16.0651C189.579 15.9036 189.64 15.843 189.762 15.843H189.965C190.067 15.843 190.168 15.9036 190.27 16.0045L198.848 27.1475C199.072 27.4503 199.275 27.6926 199.458 27.8742C199.641 28.0559 199.824 28.177 200.007 28.278C200.19 28.3789 200.393 28.4395 200.637 28.4596C200.881 28.4798 201.166 28.5 201.511 28.5H203.483C204.195 28.5 204.703 28.3385 205.048 28.0155C205.394 27.6925 205.557 27.0668 205.557 26.1382V13.0169C205.557 12.6737 205.394 12.5122 205.048 12.5122H202.629C202.284 12.5122 202.121 12.6737 202.121 13.0169V24.927C202.121 25.0885 202.06 25.149 201.938 25.149H201.735C201.593 25.149 201.491 25.0885 201.43 24.9875L192.872 13.8445C192.648 13.5619 192.465 13.3197 192.303 13.1582C192.14 12.9765 191.957 12.8554 191.774 12.7544C191.591 12.6535 191.368 12.593 191.124 12.5526C190.88 12.5324 190.575 12.5122 190.209 12.5122H188.196Z" fill="white"/>
<path d="M209.548 12.5122C209.207 12.5122 209.027 12.6737 209.027 13.0169V15.2576C209.027 15.6008 209.207 15.7824 209.548 15.7824H216.663V27.9953C216.663 28.3385 216.823 28.5 217.164 28.5H219.629C219.97 28.5 220.13 28.3385 220.13 27.9953V15.7824H227.245C227.586 15.7824 227.766 15.6008 227.766 15.2576V13.0169C227.766 12.6737 227.586 12.5122 227.245 12.5122H209.548Z" fill="white"/>
<path d="M236.301 12.5122C235.817 12.5122 235.395 12.6333 235.033 12.8756C234.67 13.1178 234.288 13.5619 233.926 14.2483L226.458 27.9752C226.378 28.1367 226.358 28.2578 226.398 28.3587C226.438 28.4596 226.559 28.5 226.76 28.5H229.719C229.961 28.5 230.142 28.3991 230.242 28.1972L231.812 25.25H242.52L244.13 28.1972C244.231 28.3991 244.392 28.5 244.653 28.5H247.551C247.733 28.5 247.853 28.4596 247.873 28.3587C247.914 28.2578 247.894 28.1367 247.813 27.9752L240.286 14.2483C239.903 13.5619 239.521 13.0976 239.118 12.8756C238.716 12.6535 238.233 12.5122 237.669 12.5122H236.301ZM236.804 15.9237C236.864 15.8228 236.945 15.7623 237.045 15.7623H237.186C237.287 15.7623 237.367 15.8228 237.428 15.9237L241.05 22.6055H233.221L236.804 15.9237Z" fill="white"/>
<path d="M130.8 39.0003C132.003 39.0003 132.971 39.6236 133.704 40.8703V35.2163H135.354V40.8483C135.677 40.2909 136.088 39.8436 136.586 39.5063C137.1 39.1689 137.65 39.0003 138.236 39.0003C139.38 39.0003 140.304 39.5063 141.008 40.5183C141.712 41.5156 142.064 42.8649 142.064 44.5663C142.064 46.2676 141.705 47.6243 140.986 48.6363C140.282 49.6483 139.366 50.1543 138.236 50.1543C137.034 50.1543 136.073 49.5309 135.354 48.2843V53.9383H133.704V48.3063C133.382 48.8636 132.964 49.3109 132.45 49.6483C131.937 49.9856 131.387 50.1543 130.8 50.1543C129.656 50.1543 128.732 49.6556 128.028 48.6583C127.324 47.6463 126.972 46.2896 126.972 44.5883C126.972 42.8869 127.324 41.5303 128.028 40.5183C128.747 39.5063 129.671 39.0003 130.8 39.0003ZM131.262 40.4743C130.456 40.4743 129.818 40.8629 129.348 41.6403C128.879 42.4029 128.644 43.3856 128.644 44.5883C128.644 45.7909 128.879 46.7736 129.348 47.5363C129.818 48.2989 130.456 48.6803 131.262 48.6803C131.761 48.6803 132.238 48.5189 132.692 48.1963C133.147 47.8736 133.484 47.4703 133.704 46.9863V42.1903C133.47 41.7063 133.125 41.3029 132.67 40.9803C132.216 40.6429 131.746 40.4743 131.262 40.4743ZM137.774 48.6803C138.581 48.6803 139.219 48.2989 139.688 47.5363C140.158 46.7589 140.392 45.7689 140.392 44.5663C140.392 43.3636 140.158 42.3809 139.688 41.6183C139.219 40.8556 138.581 40.4743 137.774 40.4743C137.29 40.4743 136.821 40.6429 136.366 40.9803C135.912 41.3029 135.574 41.6989 135.354 42.1683V46.9643C135.589 47.4483 135.926 47.8589 136.366 48.1963C136.821 48.5189 137.29 48.6803 137.774 48.6803ZM146.527 49.8903H144.943V39.2643H146.593V47.3823L152.159 39.2643H153.787V49.8903H152.137V41.6183L146.527 49.8903ZM160.668 49.8903H159.018V40.7163H155.938V39.2643H163.77V40.7163H160.668V49.8903ZM167.583 49.8903H165.933V39.2643H167.583V43.6863H173.127V39.2643H174.777V49.8903H173.127V45.1383H167.583V49.8903ZM182.868 50.1543C181.284 50.1543 179.986 49.6409 178.974 48.6143C177.962 47.5729 177.456 46.2236 177.456 44.5663C177.456 43.0116 177.955 41.6989 178.952 40.6283C179.949 39.5429 181.196 39.0003 182.692 39.0003C184.261 39.0003 185.501 39.5429 186.41 40.6283C187.334 41.6989 187.796 43.0556 187.796 44.6983V45.1163H179.194C179.267 46.1576 179.649 47.0303 180.338 47.7343C181.027 48.4383 181.922 48.7903 183.022 48.7903C184.342 48.7903 185.435 48.3429 186.3 47.4483L187.092 48.5263C186.007 49.6116 184.599 50.1543 182.868 50.1543ZM186.168 43.9063C186.153 42.9969 185.845 42.1829 185.244 41.4643C184.643 40.7309 183.785 40.3643 182.67 40.3643C181.614 40.3643 180.778 40.7236 180.162 41.4423C179.561 42.1609 179.238 42.9823 179.194 43.9063H186.168ZM195.154 50.1543C193.585 50.1543 192.309 49.6263 191.326 48.5703C190.344 47.4996 189.852 46.1649 189.852 44.5663C189.852 42.9676 190.344 41.6403 191.326 40.5843C192.309 39.5283 193.585 39.0003 195.154 39.0003C196.797 39.0003 198.095 39.6163 199.048 40.8483L197.948 41.8603C197.274 40.9363 196.372 40.4743 195.242 40.4743C194.128 40.4743 193.233 40.8556 192.558 41.6183C191.898 42.3809 191.568 43.3636 191.568 44.5663C191.568 45.7689 191.898 46.7589 192.558 47.5363C193.233 48.2989 194.128 48.6803 195.242 48.6803C196.357 48.6803 197.259 48.2183 197.948 47.2943L199.048 48.3063C198.095 49.5383 196.797 50.1543 195.154 50.1543ZM136.74 76.8903H134.628L130.8 72.1163L129.04 73.8543V76.8903H127.39V66.2643H129.04V71.9183L134.628 66.2643H136.718L132.01 71.0823L136.74 76.8903ZM137.437 77.1543V75.7903C137.936 75.7903 138.346 75.4603 138.669 74.8003C138.992 74.1403 139.256 73.0403 139.461 71.5003L140.143 66.2643H147.535V76.8903H145.885V67.7163H141.595L141.111 71.6983C140.876 73.6489 140.466 75.0496 139.879 75.9003C139.292 76.7363 138.478 77.1543 137.437 77.1543ZM150.236 81.0483L150.5 79.5523C150.764 79.6696 151.064 79.7283 151.402 79.7283C151.783 79.7283 152.098 79.6476 152.348 79.4863C152.597 79.3249 152.81 79.0316 152.986 78.6063L153.69 77.0003L149.246 66.2643H151.028L154.57 74.9763L158.09 66.2643H159.894L154.57 79.0463C153.983 80.4543 152.942 81.1729 151.446 81.2023C151.006 81.2023 150.602 81.1509 150.236 81.0483ZM163.661 74.4923C164.306 75.2843 165.172 75.6803 166.257 75.6803C167.342 75.6803 168.2 75.2843 168.831 74.4923C169.462 73.6856 169.777 72.7029 169.777 71.5443C169.777 70.4149 169.462 69.4543 168.831 68.6623C168.2 67.8703 167.342 67.4743 166.257 67.4743C165.172 67.4743 164.306 67.8703 163.661 68.6623C163.03 69.4543 162.715 70.4149 162.715 71.5443C162.715 72.7029 163.03 73.6856 163.661 74.4923ZM166.257 77.1543C164.658 77.1543 163.382 76.5896 162.429 75.4603C161.476 74.3309 160.999 72.8716 160.999 71.0823C160.999 68.5596 161.454 66.6969 162.363 65.4943C163.272 64.2769 164.673 63.5436 166.565 63.2943C167.694 63.1183 168.472 62.9496 168.897 62.7883C169.337 62.6269 169.557 62.4363 169.557 62.2163H171.163C171.163 62.6269 171.038 62.9863 170.789 63.2943C170.54 63.5876 170.18 63.8223 169.711 63.9983C169.256 64.1743 168.824 64.3136 168.413 64.4163C168.017 64.5043 167.54 64.5849 166.983 64.6583C165.516 64.8636 164.453 65.2669 163.793 65.8683C163.148 66.4696 162.722 67.2689 162.517 68.2663C163.485 66.7556 164.82 66.0003 166.521 66.0003C167.988 66.0003 169.183 66.5356 170.107 67.6063C171.031 68.6769 171.493 69.9896 171.493 71.5443C171.493 73.1283 171.016 74.4629 170.063 75.5483C169.11 76.6189 167.841 77.1543 166.257 77.1543Z" fill="white" fill-opacity="0.5"/>
</g>
<defs>
<clipPath id="clip0">
<rect width="308.16" height="57" fill="white" transform="translate(0.116211)"/>
</clipPath>
</defs>
</svg>
