<svg width="30" height="14" viewBox="0 0 30 14" fill="none" xmlns="http://www.w3.org/2000/svg">
<path d="M26.3349 1.51784C24.2104 0.811743 21.2572 0.320475 18.019 0.134663C16.0081 0.0215186 13.9922 0.0215186 11.9813 0.134663C8.74322 0.320537 5.78997 0.811805 3.66533 1.5179C1.26666 2.31524 0.050293 3.31355 0.050293 4.48523V9.41393C0.050293 10.4727 1.05319 11.3947 3.03014 12.1542C4.77487 12.8243 7.17347 13.3267 9.96713 13.607C11.6397 13.771 13.3195 13.852 15.0003 13.8498C16.6812 13.852 18.3612 13.771 20.034 13.607C22.8271 13.3267 25.2257 12.8245 26.9704 12.1542C28.9477 11.3947 29.9503 10.4727 29.9503 9.41393V4.48523C29.9503 3.31355 28.7339 2.31524 26.3349 1.51784ZM19.9338 7.69757C18.2943 7.85832 16.6478 7.93767 15.0003 7.93532C13.353 7.93766 11.7065 7.85831 10.0672 7.69757C8.37869 7.52827 6.83074 7.27382 5.50081 6.94958C7.34465 6.50088 9.60172 6.18692 12.0392 6.04713C14.0117 5.93624 15.989 5.93624 17.9615 6.04713C20.3988 6.18717 22.6559 6.50113 24.4998 6.94958C23.1698 7.27382 21.6222 7.52827 19.9338 7.69757ZM15.4986 4.9781V1.03902C16.1693 1.04518 16.8365 1.06403 17.492 1.09533V5.03706C15.8551 4.96041 14.1454 4.96041 12.5086 5.03706V1.09533C13.1641 1.06409 13.8313 1.0453 14.502 1.03908V4.9781H15.4986ZM3.98314 2.45214C5.9115 1.81141 8.56893 1.35353 11.512 1.15219V5.09294C8.48353 5.29587 5.74033 5.76564 3.72083 6.42861C2.04294 5.83446 1.04696 5.1129 1.04696 4.48523C1.04696 3.8233 2.1446 3.06336 3.98314 2.45214ZM1.04696 9.41393V6.17947C1.62976 6.63217 2.46584 7.04427 3.5552 7.41577C5.14195 7.95608 7.19614 8.37422 9.51863 8.63113V12.5679C7.0497 12.2886 4.93975 11.8305 3.391 11.2356C1.92322 10.6715 1.04696 9.99065 1.04696 9.41393ZM10.5153 12.668V8.72945C11.9608 8.85643 13.4665 8.92106 15.0003 8.92106C16.534 8.92106 18.0398 8.85643 19.4853 8.72939V12.668C18.0416 12.7974 16.5356 12.864 15.0003 12.864C13.465 12.864 11.9589 12.7977 10.5153 12.668ZM28.9536 9.41393C28.9536 9.99065 28.0774 10.6715 26.6096 11.2353C25.0608 11.8302 22.9508 12.2883 20.482 12.5676V8.63082C22.8043 8.37391 24.8586 7.95577 26.4454 7.41546C27.5334 7.04487 28.3695 6.63276 28.9536 6.17916V9.41393ZM26.2797 6.42837C24.2602 5.76546 21.517 5.29569 18.4886 5.09275V1.15219C21.4317 1.35365 24.0891 1.81141 26.0174 2.45214C27.856 3.06336 28.9536 3.8233 28.9536 4.48523C28.9536 5.1129 27.9576 5.83446 26.2797 6.42837Z" fill="black"/>
</svg>
