<svg width="23" height="23" viewBox="0 0 23 23" fill="none" xmlns="http://www.w3.org/2000/svg">
<path fill-rule="evenodd" clip-rule="evenodd" d="M19.1277 3.8406C17.1104 1.82095 14.4276 0.708216 11.5695 0.707031C5.68004 0.707031 0.886915 5.50003 0.884546 11.391C0.883757 13.2742 1.3757 15.1125 2.31077 16.7328L0.794922 22.2695L6.45916 20.7837C8.01989 21.6351 9.77697 22.0837 11.5651 22.0842H11.5696C17.4583 22.0842 22.252 17.2908 22.2542 11.3996C22.2554 8.54449 21.1451 5.86011 19.1277 3.8406ZM11.5695 20.2798H11.5658C9.97228 20.2791 8.40944 19.8509 7.04573 19.0419L6.72158 18.8493L3.36034 19.7311L4.2575 16.4539L4.04627 16.118C3.15727 14.704 2.68783 13.0697 2.68862 11.3917C2.69046 6.49524 6.67447 2.51163 11.573 2.51163C13.9451 2.51242 16.1749 3.43735 17.8516 5.116C19.5283 6.79465 20.4511 9.02591 20.4503 11.3989C20.4482 16.2958 16.4645 20.2798 11.5695 20.2798ZM16.4408 13.6285C16.1739 13.4948 14.8612 12.8491 14.6164 12.7599C14.3719 12.6708 14.1937 12.6264 14.0159 12.8936C13.8378 13.1607 13.3263 13.7622 13.1705 13.9403C13.0146 14.1184 12.8591 14.1408 12.592 14.0071C12.325 13.8735 11.4648 13.5915 10.445 12.682C9.65142 11.974 9.11565 11.0998 8.95982 10.8326C8.80426 10.5652 8.95851 10.4346 9.07695 10.2878C9.36596 9.92887 9.65537 9.5526 9.74433 9.37454C9.83343 9.19634 9.78882 9.04039 9.72196 8.90681C9.65537 8.77323 9.12144 7.45913 8.89902 6.92441C8.68213 6.40404 8.46222 6.47432 8.29823 6.46616C8.14267 6.45839 7.96461 6.45681 7.78655 6.45681C7.60861 6.45681 7.31934 6.52354 7.07455 6.79096C6.82989 7.05826 6.14027 7.70405 6.14027 9.01815C6.14027 10.3322 7.09693 11.6017 7.23037 11.7799C7.36382 11.9581 9.11301 14.6547 11.7911 15.811C12.4281 16.0864 12.9253 16.2505 13.3131 16.3735C13.9527 16.5767 14.5346 16.548 14.9947 16.4793C15.5077 16.4026 16.5741 15.8334 16.7968 15.2099C17.0192 14.5862 17.0192 14.0517 16.9523 13.9403C16.8857 13.8289 16.7077 13.7622 16.4408 13.6285Z" fill="black"/>
</svg>
