<svg width="32" height="18" viewBox="0 0 32 18" fill="none" xmlns="http://www.w3.org/2000/svg">
<path d="M0.999974 2.24995H31C31.552 2.24995 31.9999 1.74591 31.9999 1.12497C31.9999 0.503947 31.5519 0 31 0H0.999974C0.447952 0 0 0.504041 0 1.12497C0 1.74591 0.448035 2.24995 0.999974 2.24995Z" fill="black"/>
<path d="M31 7.875H0.999974C0.447952 7.875 0 8.37904 0 8.99997C0 9.6209 0.448035 10.1249 0.999974 10.1249H31C31.552 10.1249 31.9999 9.6209 31.9999 8.99997C31.9999 8.37904 31.552 7.875 31 7.875Z" fill="black"/>
<path d="M30.5455 15.4277H1.45451C0.651568 15.4277 0 16.0038 0 16.7135C0 17.4232 0.651688 17.9992 1.45451 17.9992H30.5455C31.3484 17.9992 32 17.4231 32 16.7135C32.0001 16.0037 31.3484 15.4277 30.5455 15.4277Z" fill="black"/>
</svg>
