<svg width="20" height="19" viewBox="0 0 20 19" fill="none" xmlns="http://www.w3.org/2000/svg">
<path d="M15.0968 12.5686C14.4761 11.9557 13.7011 11.9557 13.0843 12.5686C12.6138 13.0351 12.1433 13.5017 11.6807 13.9762C11.5542 14.1067 11.4474 14.1343 11.2932 14.0473C10.9887 13.8813 10.6645 13.7468 10.3719 13.565C9.00785 12.707 7.86517 11.6038 6.85298 10.3623C6.35083 9.74551 5.90404 9.08521 5.59169 8.34188C5.52842 8.19163 5.54029 8.09278 5.66286 7.97021C6.13337 7.51551 6.59202 7.04895 7.05463 6.58239C7.69911 5.93395 7.69911 5.17481 7.05067 4.52241C6.68296 4.15075 6.31525 3.78699 5.94754 3.41532C5.56796 3.03575 5.19234 2.65222 4.80882 2.2766C4.18805 1.67166 3.41309 1.67166 2.79628 2.28056C2.32182 2.74712 1.86712 3.22554 1.38475 3.68419C0.937956 4.10725 0.712584 4.62522 0.665137 5.23016C0.590013 6.21468 0.831201 7.14385 1.17124 8.04929C1.86712 9.92343 2.92676 11.588 4.21178 13.1142C5.94754 15.1782 8.01938 16.8111 10.4431 17.9894C11.5344 18.5192 12.6652 18.9264 13.8949 18.9937C14.741 19.0411 15.4764 18.8276 16.0655 18.1673C16.4688 17.7166 16.9235 17.3053 17.3506 16.8744C17.9832 16.2338 17.9871 15.4589 17.3585 14.8263C16.6072 14.0711 15.852 13.3198 15.0968 12.5686Z" />
<path d="M14.3419 9.41851L15.8009 9.16942C15.5715 7.82905 14.9389 6.6152 13.9781 5.65045C12.962 4.6343 11.677 3.99377 10.2615 3.79608L10.0559 5.26297C11.1511 5.41717 12.1475 5.91141 12.9343 6.69824C13.6776 7.44157 14.164 8.38259 14.3419 9.41851Z" />
<path d="M16.6232 3.07613C14.9388 1.39177 12.8077 0.328173 10.4551 0L10.2495 1.46689C12.2818 1.75157 14.1243 2.67283 15.5794 4.12391C16.9593 5.50382 17.8647 7.24748 18.1929 9.16512L19.6519 8.91603C19.2683 6.69394 18.2206 4.67745 16.6232 3.07613Z"/>
</svg>
