<svg width="19" height="11" viewBox="0 0 19 11" fill="none" xmlns="http://www.w3.org/2000/svg">
<path d="M15.7666 6.30771C15.4594 5.92271 15.5473 5.75143 15.7666 5.40729C15.7705 5.40336 18.3063 1.92579 18.5676 0.746428L18.5692 0.745643C18.699 0.315857 18.5692 0 17.9414 0H15.864C15.3351 0 15.0913 0.271071 14.9606 0.574357C14.9606 0.574357 13.9029 3.08707 12.4066 4.71586C11.9237 5.1865 11.7004 5.33736 11.4368 5.33736C11.307 5.33736 11.1051 5.1865 11.1051 4.75671V0.745643C11.1051 0.230214 10.957 0 10.5192 0H7.25271C6.92099 0 6.72386 0.240429 6.72386 0.464357C6.72386 0.953071 7.47201 1.06543 7.5496 2.44043V5.42379C7.5496 6.0775 7.43005 6.19771 7.16483 6.19771C6.45864 6.19771 4.74462 3.67479 3.72888 0.787286C3.52383 0.227071 3.32353 0.000785657 2.79072 0.000785657H0.712525C0.119546 0.000785657 0 0.271857 0 0.575143C0 1.111 0.706191 3.77536 3.28395 7.29536C5.00192 9.69807 7.42134 11 9.62225 11C10.9452 11 11.1067 10.7109 11.1067 10.2135C11.1067 7.91764 10.9871 7.70079 11.6498 7.70079C11.957 7.70079 12.4858 7.85164 13.7208 9.01057C15.1324 10.3848 15.3644 11 16.1545 11H18.2319C18.8241 11 19.1242 10.7109 18.9516 10.1404C18.5565 8.94064 15.8869 6.47271 15.7666 6.30771Z" fill="#1F1F1F"/>
</svg>
