<svg width="16" height="16" viewBox="0 0 16 16" fill="none" xmlns="http://www.w3.org/2000/svg">
<path d="M15.9593 4.70406C15.9218 3.85391 15.7843 3.26945 15.5874 2.763C15.3842 2.22542 15.0715 1.74412 14.662 1.34402C14.2618 0.937686 13.7772 0.621949 13.2458 0.421959C12.7363 0.22502 12.1548 0.0875418 11.3044 0.0500587C10.4478 0.00940127 10.1758 0 8.00311 0C5.83039 0 5.55844 0.00940127 4.70496 0.0468843C3.85465 0.0843673 3.27007 0.221968 2.76365 0.418784C2.22584 0.621949 1.74445 0.934511 1.34427 1.34402C0.937865 1.74412 0.62219 2.22859 0.422039 2.75995C0.225063 3.26945 0.0875585 3.85074 0.0500683 4.70088C0.00940307 5.55738 0 5.82928 0 8.00159C0 10.1739 0.00940307 10.4458 0.0468932 11.2991C0.0843834 12.1493 0.22201 12.7337 0.418986 13.2402C0.62219 13.7778 0.937865 14.2591 1.34427 14.6592C1.74445 15.0655 2.22902 15.3812 2.76047 15.5812C3.27007 15.7782 3.85147 15.9156 4.7019 15.9531C5.55526 15.9907 5.82734 16 8.00006 16C10.1728 16 10.4447 15.9907 11.2982 15.9531C12.1485 15.9156 12.7331 15.7782 13.2395 15.5812C14.315 15.1655 15.1653 14.3153 15.5811 13.2402C15.778 12.7307 15.9156 12.1493 15.9531 11.2991C15.9906 10.4458 16 10.1739 16 8.00159C16 5.82928 15.9968 5.55738 15.9593 4.70406ZM14.5182 11.2366C14.4838 12.018 14.3525 12.44 14.2431 12.7213C13.9742 13.4183 13.4209 13.9715 12.7237 14.2404C12.4423 14.3498 12.0172 14.481 11.2387 14.5153C10.3947 14.5529 10.1415 14.5622 8.00629 14.5622C5.87106 14.5622 5.61473 14.5529 4.77371 14.5153C3.99215 14.481 3.57011 14.3498 3.28876 14.2404C2.94182 14.1122 2.62602 13.909 2.3697 13.6433C2.10397 13.3839 1.90076 13.0713 1.77254 12.7244C1.66312 12.4431 1.53185 12.018 1.49753 11.2398C1.45992 10.3959 1.45064 10.1426 1.45064 8.00781C1.45064 5.87299 1.45992 5.61671 1.49753 4.77597C1.53185 3.99457 1.66312 3.57261 1.77254 3.2913C1.90076 2.94431 2.10397 2.6287 2.37287 2.3723C2.63225 2.10662 2.94487 1.90345 3.29193 1.77538C3.57329 1.66598 3.9985 1.53473 4.77688 1.5003C5.62096 1.46281 5.87423 1.45341 8.00934 1.45341C10.1477 1.45341 10.4009 1.46281 11.2419 1.5003C12.0235 1.53473 12.4455 1.66598 12.7269 1.77538C13.0738 1.90345 13.3896 2.10662 13.6459 2.3723C13.9117 2.63175 14.1149 2.94431 14.2431 3.2913C14.3525 3.57261 14.4838 3.99762 14.5182 4.77597C14.5557 5.61989 14.5651 5.87299 14.5651 8.00781C14.5651 10.1426 14.5557 10.3927 14.5182 11.2366Z" fill="#1F1F1F"/>
<path d="M8 4C5.79171 4 4 5.79159 4 8C4 10.2084 5.79171 12 8 12C10.2084 12 12 10.2084 12 8C12 5.79159 10.2084 4 8 4ZM8 10.5947C6.56737 10.5947 5.4053 9.43275 5.4053 8C5.4053 6.56725 6.56737 5.4053 8 5.4053C9.43275 5.4053 10.5947 6.56725 10.5947 8C10.5947 9.43275 9.43275 10.5947 8 10.5947Z" fill="#1F1F1F"/>
<path d="M13 4C13 4.55223 12.5523 5 11.9999 5C11.4477 5 11 4.55223 11 4C11 3.44764 11.4477 3 11.9999 3C12.5523 3 13 3.44764 13 4Z" fill="#1F1F1F"/>
</svg>
