<svg width="19" height="14" viewBox="0 0 19 14" fill="none" xmlns="http://www.w3.org/2000/svg">
<path d="M18.6085 2.19067C18.3896 1.33405 17.7478 0.658786 16.934 0.428126C15.4472 0 9.49979 0 9.49979 0C9.49979 0 3.55265 0 2.06584 0.411894C1.26764 0.64231 0.610218 1.33417 0.391273 2.19067C0 3.75525 0 7 0 7C0 7 0 10.2611 0.391273 11.8093C0.61045 12.6658 1.25198 13.3411 2.06595 13.5718C3.56831 14 9.50002 14 9.50002 14C9.50002 14 15.4472 14 16.934 13.5881C17.7479 13.3576 18.3896 12.6823 18.6088 11.8258C18.9999 10.2611 18.9999 7.01648 18.9999 7.01648C18.9999 7.01648 19.0156 3.75525 18.6085 2.19067ZM7.60628 9.99761V4.00239L12.5518 7L7.60628 9.99761Z" fill="#1F1F1F"/>
</svg>
