<svg width="35" height="35" viewBox="0 0 35 35" fill="none" xmlns="http://www.w3.org/2000/svg">
<g clip-path="url(#clip0)">
<path d="M29.0427 18.9985C28.4769 18.2839 28.6388 17.966 29.0427 17.3273C29.05 17.32 33.721 10.8654 34.2023 8.67643L34.2052 8.67497C34.4444 7.87727 34.2052 7.29102 33.0488 7.29102H29.2221C28.2479 7.29102 27.7987 7.79414 27.5581 8.35706C27.5581 8.35706 25.6098 13.0208 22.8535 16.0439C21.964 16.9175 21.5527 17.1975 21.0671 17.1975C20.8279 17.1975 20.456 16.9175 20.456 16.1198V8.67497C20.456 7.71831 20.1833 7.29102 19.3769 7.29102H13.3598C12.7488 7.29102 12.3856 7.73727 12.3856 8.15289C12.3856 9.05997 13.7638 9.26852 13.9067 11.8206V17.3579C13.9067 18.5712 13.6865 18.7943 13.1979 18.7943C11.8971 18.7943 8.73979 14.1116 6.86875 8.75227C6.49104 7.71247 6.12208 7.29247 5.14063 7.29247H1.3125C0.220208 7.29247 0 7.7956 0 8.35852C0 9.3531 1.30083 14.2983 6.04917 20.8316C9.21375 25.2912 13.6704 27.7077 17.7246 27.7077C20.1615 27.7077 20.459 27.171 20.459 26.2479C20.459 21.9866 20.2388 21.5841 21.4594 21.5841C22.0252 21.5841 22.9994 21.8641 25.2744 24.0152C27.8746 26.5658 28.3019 27.7077 29.7573 27.7077H33.584C34.6748 27.7077 35.2275 27.171 34.9096 26.1123C34.1819 23.8854 29.2644 19.3048 29.0427 18.9985Z" fill="white"/>
</g>
<defs>
<clipPath id="clip0">
<rect width="35" height="35" fill="white"/>
</clipPath>
</defs>
</svg>
