<svg width="28" height="28" viewBox="0 0 28 28" fill="none" xmlns="http://www.w3.org/2000/svg">
<path fill-rule="evenodd" clip-rule="evenodd" d="M23.2854 4.6761C20.8296 2.21741 17.5636 0.86277 14.0841 0.861328C6.91439 0.861328 1.07928 6.69628 1.07639 13.8679C1.07543 16.1605 1.67432 18.3984 2.81267 20.371L0.967285 27.1113L7.86288 25.3025C9.76289 26.3389 11.902 26.8851 14.0788 26.8857H14.0843C21.2532 26.8857 27.0889 21.0503 27.0917 13.8783C27.0931 10.4026 25.7414 7.13463 23.2854 4.6761ZM14.0841 24.689H14.0796C12.1397 24.6882 10.2371 24.1669 8.57696 23.182L8.18235 22.9476L4.0904 24.0211L5.1826 20.0315L4.92545 19.6224C3.84319 17.9011 3.27169 15.9115 3.27265 13.8687C3.27489 7.90784 8.12499 3.05823 14.0884 3.05823C16.9762 3.05919 19.6908 4.1852 21.7319 6.22877C23.7731 8.27234 24.8965 10.9887 24.8956 13.8775C24.893 19.8389 20.0432 24.689 14.0841 24.689ZM20.0144 16.5918C19.6895 16.429 18.0915 15.643 17.7935 15.5343C17.4958 15.4259 17.2788 15.3719 17.0624 15.6971C16.8456 16.0224 16.2229 16.7546 16.0332 16.9713C15.8435 17.1883 15.6541 17.2155 15.329 17.0527C15.0039 16.8901 13.9567 16.5468 12.7152 15.4395C11.7491 14.5777 11.0969 13.5134 10.9072 13.1881C10.7178 12.8626 10.9056 12.7036 11.0498 12.5248C11.4016 12.0879 11.7539 11.6299 11.8622 11.4131C11.9707 11.1961 11.9164 11.0063 11.835 10.8437C11.7539 10.681 11.1039 9.08127 10.8331 8.43031C10.5691 7.79681 10.3014 7.88237 10.1018 7.87244C9.91238 7.86298 9.6956 7.86106 9.47883 7.86106C9.26221 7.86106 8.91006 7.94229 8.61205 8.26785C8.31421 8.59325 7.47467 9.37944 7.47467 10.9792C7.47467 12.579 8.63929 14.1244 8.80175 14.3414C8.96421 14.5583 11.0937 17.8412 14.3539 19.2488C15.1294 19.584 15.7347 19.7838 16.2068 19.9336C16.9855 20.181 17.6938 20.146 18.2539 20.0624C18.8785 19.969 20.1767 19.2761 20.4478 18.5169C20.7185 17.7577 20.7185 17.107 20.6372 16.9713C20.5561 16.8358 20.3393 16.7546 20.0144 16.5918Z" fill="white"/>
</svg>
