<svg width="36" height="36" viewBox="0 0 36 36" fill="none" xmlns="http://www.w3.org/2000/svg">
<path d="M34.162 9.56477C33.7731 8.1189 32.6331 6.97914 31.1874 6.58981C28.5464 5.86719 17.982 5.86719 17.982 5.86719C17.982 5.86719 7.41804 5.86719 4.77699 6.56242C3.35914 6.95133 2.19136 8.11911 1.80244 9.56477C1.10742 12.2056 1.10742 17.6824 1.10742 17.6824C1.10742 17.6824 1.10742 23.1867 1.80244 25.8C2.19177 27.2456 3.33133 28.3854 4.7772 28.7747C7.44585 29.4975 17.9824 29.4975 17.9824 29.4975C17.9824 29.4975 28.5464 29.4975 31.1874 28.8023C32.6333 28.4132 33.7731 27.2734 34.1624 25.8278C34.8572 23.1867 34.8572 17.7102 34.8572 17.7102C34.8572 17.7102 34.885 12.2056 34.162 9.56477ZM14.6185 22.742V12.6227L23.4033 17.6824L14.6185 22.742Z" fill="white"/>
</svg>
