<svg width="73" height="47" viewBox="0 0 73 47" fill="none" xmlns="http://www.w3.org/2000/svg">
<path d="M11 14H5V26H11V14Z" fill="#F4C602"/>
<path fill-rule="evenodd" clip-rule="evenodd" d="M59 11V30H53.4444V23.92H51V16.5733H53.4444V11H59Z" fill="#F4C602"/>
<path fill-rule="evenodd" clip-rule="evenodd" d="M42.9838 4.7323L50 9.44732V28.3074L43.5472 24.1969L43.513 13.7997L39.7403 11.2608L35.9847 8.72193L32.212 11.2608L28.4394 13.7997V17.2021H42.1132V24.1796H28.4394L28.4223 24.1969H28.4906L21.9524 28.3074V24.1969H17.9748V30H12V11.8653H17.9748V17.1848H21.9524V9.44732L28.9686 4.7323L35.9847 0L42.9838 4.7323Z" fill="#F4C602"/>
<path d="M67 14H60V26H67V14Z" fill="#F4C602"/>
<path d="M5.99532 37C5.70346 37 5.44808 37.0758 5.22919 37.2273C5.01029 37.3788 4.77923 37.6566 4.56034 38.0859L0.0486425 46.6717C-1.10177e-06 46.7727 -0.0121605 46.8485 0.0121613 46.9116C0.0364831 46.9747 0.109447 47 0.231056 47H2.01871C2.16464 47 2.27409 46.9369 2.33489 46.8106L3.28344 44.9672H9.75304L10.7259 46.8106C10.7867 46.9369 10.884 47 11.0421 47H12.7933C12.9027 47 12.9757 46.9747 12.9878 46.9116C13.0122 46.8485 13 46.7727 12.9514 46.6717L8.40318 38.0859C8.17213 37.6566 7.94107 37.3662 7.69785 37.2273C7.45463 37.0884 7.16277 37 6.82226 37H5.99532ZM6.29934 39.1338C6.33583 39.0707 6.38447 39.0328 6.44528 39.0328H6.5304C6.59121 39.0328 6.63985 39.0707 6.67633 39.1338L8.86529 43.3131H4.13471L6.29934 39.1338Z" fill="white"/>
<path d="M12.1957 37C12.0927 37 12.0309 37.0379 12.0103 37.0884C11.9897 37.1515 12 37.2273 12.0412 37.3283L15.9036 45.9141C16.0992 46.3561 16.2949 46.6465 16.4906 46.7854C16.6863 46.9242 16.9335 47 17.2425 47H17.9223C18.1695 47 18.3858 46.9242 18.5712 46.7854C18.7566 46.6465 18.9522 46.3561 19.1376 45.9141L22.9588 37.3283C23 37.2273 23.0103 37.1515 22.9897 37.0884C22.9691 37.0253 22.9176 37 22.8249 37H21.3006C21.1667 37 21.0843 37.0631 21.0328 37.1894L17.6751 44.8662C17.6442 44.9293 17.603 44.9672 17.5515 44.9672H17.4897C17.4176 44.9672 17.3764 44.9293 17.3455 44.8662L13.9363 37.1894C13.9054 37.1263 13.8745 37.0758 13.8333 37.0505C13.8024 37.0253 13.7406 37.0126 13.6685 37.0126H12.1957V37Z" fill="white"/>
<path d="M27.9953 37C27.7035 37 27.4481 37.0758 27.2292 37.2273C27.0103 37.3788 26.7792 37.6566 26.5603 38.0859L22.0486 46.6717C22 46.7727 21.9878 46.8485 22.0122 46.9116C22.0365 46.9747 22.1094 47 22.2311 47H24.0187C24.1646 47 24.2741 46.9369 24.3349 46.8106L25.2834 44.9672H31.753L32.7259 46.8106C32.7867 46.9369 32.884 47 33.0421 47H34.7933C34.9027 47 34.9757 46.9747 34.9878 46.9116C35.0122 46.8485 35 46.7727 34.9514 46.6717L30.4032 38.0859C30.1721 37.6566 29.9411 37.3662 29.6978 37.2273C29.4546 37.0884 29.1628 37 28.8223 37H27.9953ZM28.2993 39.1338C28.3358 39.0707 28.3845 39.0328 28.4453 39.0328H28.5304C28.5912 39.0328 28.6398 39.0707 28.6763 39.1338L30.8653 43.3131H26.1347L28.2993 39.1338Z" fill="white"/>
<path d="M37.1736 37C36.7709 37 36.4833 37.101 36.2877 37.303C36.0921 37.5051 36 37.8965 36 38.4773V46.6717C36 46.8864 36.1036 46.9874 36.2992 46.9874H37.6684C37.864 46.9874 37.9561 46.8864 37.9561 46.6717V39.2222C37.9561 39.1212 37.9906 39.0833 38.0596 39.0833H38.1747C38.2322 39.0833 38.2897 39.1212 38.3473 39.1843L43.2029 46.154C43.3295 46.3434 43.4446 46.495 43.5481 46.6086C43.6517 46.7222 43.7552 46.798 43.8588 46.8611C43.9623 46.9242 44.0774 46.9621 44.2155 46.9747C44.3536 46.9874 44.5146 47 44.7102 47H45.8264C46.2291 47 46.5167 46.899 46.7123 46.697C46.9079 46.495 47 46.1035 47 45.5227V37.3157C47 37.101 46.9079 37 46.7123 37H45.3431C45.1475 37 45.0554 37.101 45.0554 37.3157V44.7652C45.0554 44.8662 45.0209 44.904 44.9519 44.904H44.8368C44.7563 44.904 44.6987 44.8662 44.6642 44.803L39.8201 37.8333C39.6935 37.6566 39.59 37.5051 39.4979 37.404C39.4059 37.2904 39.3023 37.2146 39.1987 37.1515C39.0952 37.0884 38.9686 37.0505 38.8305 37.0253C38.6925 37.0126 38.5199 37 38.3128 37H37.1736Z" fill="white"/>
<path d="M50.2781 37C50.0963 37 50 37.101 50 37.3157V38.7172C50 38.9318 50.0963 39.0455 50.2781 39.0455H54.0749V46.6843C54.0749 46.899 54.1604 47 54.3422 47H55.6578C55.8396 47 55.9251 46.899 55.9251 46.6843V39.0455H59.7219C59.9037 39.0455 60 38.9318 60 38.7172V37.3157C60 37.101 59.9037 37 59.7219 37H50.2781V37Z" fill="white"/>
<path d="M65.4565 37C65.1422 37 64.8672 37.0758 64.6314 37.2273C64.3957 37.3788 64.1469 37.6566 63.9111 38.0859L59.0524 46.6717C59 46.7727 58.9869 46.8485 59.0131 46.9116C59.0393 46.9747 59.1179 47 59.2488 47H61.174C61.3312 47 61.449 46.9369 61.5145 46.8106L62.536 44.9672H69.5033L70.551 46.8106C70.6165 46.9369 70.7212 47 70.8915 47H72.7774C72.8952 47 72.9738 46.9747 72.9869 46.9116C73.0131 46.8485 73 46.7727 72.9476 46.6717L68.0496 38.0859C67.8007 37.6566 67.5519 37.3662 67.29 37.2273C67.0281 37.0884 66.7138 37 66.3471 37H65.4565ZM65.7839 39.1338C65.8232 39.0707 65.8756 39.0328 65.9411 39.0328H66.0327C66.0982 39.0328 66.1506 39.0707 66.1899 39.1338L68.5472 43.3131H63.4528L65.7839 39.1338Z" fill="white"/>
</svg>
