<?xml version="1.0" encoding="UTF-8"?>
<svg xmlns="http://www.w3.org/2000/svg" xmlns:xlink="http://www.w3.org/1999/xlink" width="339.18pt" height="117.17pt" viewBox="0 0 339.18 117.17" version="1.1">
<defs>
<clipPath id="clip1">
  <path d="M 15 89 L 34 89 L 34 117.171875 L 15 117.171875 Z M 15 89 "/>
</clipPath>
<clipPath id="clip2">
  <path d="M 57 89 L 76 89 L 76 117.171875 L 57 117.171875 Z M 57 89 "/>
</clipPath>
<clipPath id="clip3">
  <path d="M 110 89 L 129 89 L 129 117.171875 L 110 117.171875 Z M 110 89 "/>
</clipPath>
<clipPath id="clip4">
  <path d="M 301 89 L 320 89 L 320 117.171875 L 301 117.171875 Z M 301 89 "/>
</clipPath>
<clipPath id="clip5">
  <path d="M 321 89 L 339.179688 89 L 339.179688 117.171875 L 321 117.171875 Z M 321 89 "/>
</clipPath>
</defs>
<g id="surface1">
<path style=" stroke:none;fill-rule:nonzero;fill:rgb(0.799561%,0.799561%,0.799561%);fill-opacity:1;" d="M 47.613281 35.359375 L 27.46875 35.359375 L 27.46875 21.894531 C 27.46875 17.980469 27.25 15.535156 26.820313 14.566406 C 26.390625 13.59375 25.441406 13.109375 23.972656 13.109375 C 22.316406 13.109375 21.261719 13.699219 20.816406 14.878906 C 20.367188 16.058594 20.144531 18.613281 20.144531 22.535156 L 20.144531 58.519531 C 20.144531 62.285156 20.367188 64.742188 20.816406 65.890625 C 21.261719 67.039063 22.265625 67.613281 23.832031 67.613281 C 25.328125 67.613281 26.308594 67.035156 26.773438 65.886719 C 27.234375 64.734375 27.46875 62.03125 27.46875 57.777344 L 27.46875 48.039063 L 47.613281 48.039063 L 47.613281 51.058594 C 47.613281 59.078125 47.046875 64.765625 45.914063 68.121094 C 44.78125 71.472656 42.277344 74.414063 38.402344 76.9375 C 34.523438 79.460938 29.746094 80.722656 24.070313 80.722656 C 18.167969 80.722656 13.300781 79.652344 9.476563 77.515625 C 5.644531 75.378906 3.109375 72.421875 1.867188 68.640625 C 0.621094 64.859375 0 59.175781 0 51.582031 L 0 28.949219 C 0 23.367188 0.191406 19.179688 0.574219 16.386719 C 0.957031 13.59375 2.097656 10.90625 3.996094 8.324219 C 5.894531 5.738281 8.523438 3.707031 11.890625 2.222656 C 15.257813 0.738281 19.125 -0.00390625 23.496094 -0.00390625 C 29.429688 -0.00390625 34.324219 1.144531 38.183594 3.4375 C 42.042969 5.730469 44.582031 8.59375 45.792969 12.015625 C 47.007813 15.441406 47.613281 20.769531 47.613281 28 L 47.613281 35.359375 "/>
<path style=" stroke:none;fill-rule:nonzero;fill:rgb(0.799561%,0.799561%,0.799561%);fill-opacity:1;" d="M 75.261719 15.597656 L 74.496094 23.945313 C 77.300781 17.96875 81.371094 14.800781 86.699219 14.449219 L 86.699219 36.796875 C 83.15625 36.796875 80.554688 37.273438 78.898438 38.230469 C 77.238281 39.1875 76.21875 40.519531 75.835938 42.226563 C 75.453125 43.933594 75.261719 47.867188 75.261719 54.023438 L 75.261719 79.097656 L 55.929688 79.097656 L 55.929688 15.597656 L 75.261719 15.597656 "/>
<path style=" stroke:none;fill-rule:nonzero;fill:rgb(0.799561%,0.799561%,0.799561%);fill-opacity:1;" d="M 117.074219 33.109375 C 117.074219 29.855469 116.898438 27.808594 116.550781 26.960938 C 116.195313 26.117188 115.449219 25.695313 114.300781 25.695313 C 113.152344 25.695313 112.386719 26.117188 112.003906 26.960938 C 111.621094 27.808594 111.429688 29.855469 111.429688 33.109375 L 111.429688 61.773438 C 111.429688 64.773438 111.621094 66.726563 112.003906 67.636719 C 112.386719 68.542969 113.136719 69 114.253906 69 C 115.398438 69 116.15625 68.585938 116.523438 67.753906 C 116.890625 66.925781 117.074219 65.140625 117.074219 62.394531 Z M 136.40625 37.894531 L 136.40625 53.449219 C 136.40625 59.160156 136.121094 63.34375 135.546875 66.007813 C 134.972656 68.671875 133.742188 71.160156 131.859375 73.472656 C 129.980469 75.789063 127.5625 77.492188 124.613281 78.59375 C 121.660156 79.695313 118.269531 80.246094 114.441406 80.246094 C 110.167969 80.246094 106.546875 79.773438 103.582031 78.832031 C 100.613281 77.894531 98.308594 76.472656 96.667969 74.574219 C 95.023438 72.675781 93.851563 70.378906 93.148438 67.683594 C 92.449219 64.988281 92.097656 60.945313 92.097656 55.554688 L 92.097656 39.285156 C 92.097656 33.382813 92.734375 28.773438 94.011719 25.453125 C 95.285156 22.136719 97.582031 19.472656 100.902344 17.464844 C 104.21875 15.453125 108.460938 14.449219 113.628906 14.449219 C 117.96875 14.449219 121.691406 15.09375 124.804688 16.386719 C 127.914063 17.679688 130.3125 19.363281 132.003906 21.433594 C 133.695313 23.507813 134.851563 25.644531 135.472656 27.847656 C 136.097656 30.046875 136.40625 33.398438 136.40625 37.894531 "/>
<path style=" stroke:none;fill-rule:nonzero;fill:rgb(0.799561%,0.799561%,0.799561%);fill-opacity:1;" d="M 183.914063 35.886719 L 166.785156 35.886719 L 166.785156 32.441406 C 166.785156 29.507813 166.617188 27.648438 166.28125 26.867188 C 165.945313 26.085938 165.109375 25.695313 163.769531 25.695313 C 162.683594 25.695313 161.871094 26.050781 161.328125 26.769531 C 160.785156 27.488281 160.515625 28.566406 160.515625 30 C 160.515625 31.945313 160.652344 33.375 160.921875 34.28125 C 161.191406 35.191406 162.007813 36.191406 163.363281 37.273438 C 164.71875 38.359375 167.503906 39.9375 171.714844 42.011719 C 177.328125 44.753906 181.011719 47.339844 182.765625 49.761719 C 184.519531 52.1875 185.398438 55.714844 185.398438 60.339844 C 185.398438 65.507813 184.730469 69.40625 183.390625 72.039063 C 182.050781 74.671875 179.808594 76.695313 176.664063 78.117188 C 173.523438 79.535156 169.734375 80.246094 165.300781 80.246094 C 160.386719 80.246094 156.1875 79.476563 152.691406 77.949219 C 149.199219 76.414063 146.796875 74.34375 145.488281 71.726563 C 144.183594 69.113281 143.527344 65.15625 143.527344 59.859375 L 143.527344 56.796875 L 160.660156 56.796875 L 160.660156 60.816406 C 160.660156 64.230469 160.875 66.449219 161.304688 67.46875 C 161.734375 68.488281 162.589844 69 163.863281 69 C 165.234375 69 166.191406 68.65625 166.734375 67.96875 C 167.277344 67.285156 167.550781 65.839844 167.550781 63.640625 C 167.550781 60.609375 167.199219 58.710938 166.496094 57.945313 C 165.761719 57.179688 162.015625 54.914063 155.253906 51.152344 C 149.574219 47.960938 146.113281 45.066406 144.867188 42.464844 C 143.625 39.867188 143.003906 36.78125 143.003906 33.207031 C 143.003906 28.132813 143.671875 24.394531 145.011719 21.984375 C 146.351563 19.578125 148.625 17.71875 151.828125 16.410156 C 155.035156 15.101563 158.761719 14.449219 163.003906 14.449219 C 167.214844 14.449219 170.796875 14.984375 173.746094 16.050781 C 176.695313 17.121094 178.964844 18.53125 180.539063 20.285156 C 182.121094 22.042969 183.078125 23.667969 183.410156 25.167969 C 183.746094 26.667969 183.914063 29.011719 183.914063 32.203125 L 183.914063 35.886719 "/>
<path style=" stroke:none;fill-rule:nonzero;fill:rgb(0.799561%,0.799561%,0.799561%);fill-opacity:1;" d="M 231.710938 35.886719 L 214.578125 35.886719 L 214.578125 32.441406 C 214.578125 29.507813 214.410156 27.648438 214.074219 26.867188 C 213.742188 26.085938 212.902344 25.695313 211.5625 25.695313 C 210.480469 25.695313 209.664063 26.050781 209.125 26.769531 C 208.582031 27.488281 208.3125 28.566406 208.3125 30 C 208.3125 31.945313 208.445313 33.375 208.71875 34.28125 C 208.988281 35.191406 209.800781 36.191406 211.15625 37.273438 C 212.515625 38.359375 215.296875 39.9375 219.507813 42.011719 C 225.121094 44.753906 228.808594 47.339844 230.5625 49.761719 C 232.316406 52.1875 233.191406 55.714844 233.191406 60.339844 C 233.191406 65.507813 232.523438 69.40625 231.183594 72.039063 C 229.84375 74.671875 227.601563 76.695313 224.460938 78.117188 C 221.316406 79.535156 217.527344 80.246094 213.097656 80.246094 C 208.183594 80.246094 203.980469 79.476563 200.484375 77.949219 C 196.992188 76.414063 194.59375 74.34375 193.285156 71.726563 C 191.976563 69.113281 191.324219 65.15625 191.324219 59.859375 L 191.324219 56.796875 L 208.453125 56.796875 L 208.453125 60.816406 C 208.453125 64.230469 208.671875 66.449219 209.101563 67.46875 C 209.53125 68.488281 210.382813 69 211.660156 69 C 213.03125 69 213.988281 68.65625 214.53125 67.96875 C 215.074219 67.285156 215.34375 65.839844 215.34375 63.640625 C 215.34375 60.609375 214.992188 58.710938 214.292969 57.945313 C 213.558594 57.179688 209.808594 54.914063 203.046875 51.152344 C 197.367188 47.960938 193.90625 45.066406 192.664063 42.464844 C 191.417969 39.867188 190.796875 36.78125 190.796875 33.207031 C 190.796875 28.132813 191.46875 24.394531 192.808594 21.984375 C 194.144531 19.578125 196.421875 17.71875 199.625 16.410156 C 202.832031 15.101563 206.554688 14.449219 210.800781 14.449219 C 215.011719 14.449219 218.589844 14.984375 221.539063 16.050781 C 224.492188 17.121094 226.757813 18.53125 228.335938 20.285156 C 229.914063 22.042969 230.871094 23.667969 231.207031 25.167969 C 231.542969 26.667969 231.710938 29.011719 231.710938 32.203125 L 231.710938 35.886719 "/>
<path style=" stroke:none;fill-rule:nonzero;fill:rgb(0.799561%,0.799561%,0.799561%);fill-opacity:1;" d="M 240.601563 1.625 L 274.71875 1.625 L 274.71875 17.128906 L 260.746094 17.128906 L 260.746094 31.820313 L 273.1875 31.820313 L 273.1875 46.558594 L 260.746094 46.558594 L 260.746094 79.097656 L 240.601563 79.097656 L 240.601563 1.625 "/>
<path style=" stroke:none;fill-rule:nonzero;fill:rgb(0.799561%,0.799561%,0.799561%);fill-opacity:1;" d="M 300.597656 15.597656 L 300.597656 79.097656 L 280.691406 79.097656 L 280.691406 15.597656 Z M 300.597656 1.625 L 300.597656 11.722656 L 280.691406 11.722656 L 280.691406 1.625 L 300.597656 1.625 "/>
<path style=" stroke:none;fill-rule:nonzero;fill:rgb(0.799561%,0.799561%,0.799561%);fill-opacity:1;" d="M 329.589844 7.128906 L 329.589844 17.128906 L 334.804688 17.128906 L 334.804688 27.175781 L 329.589844 27.175781 L 329.589844 61.152344 C 329.589844 65.332031 329.804688 67.660156 330.234375 68.136719 C 330.664063 68.617188 332.460938 68.855469 335.617188 68.855469 L 335.617188 79.097656 L 327.816406 79.097656 C 323.414063 79.097656 320.273438 78.914063 318.390625 78.546875 C 316.507813 78.179688 314.851563 77.335938 313.414063 76.011719 C 311.980469 74.6875 311.085938 73.171875 310.734375 71.464844 C 310.382813 69.757813 310.207031 65.746094 310.207031 59.429688 L 310.207031 27.175781 L 306.046875 27.175781 L 306.046875 17.128906 L 310.207031 17.128906 L 310.207031 7.128906 L 329.589844 7.128906 "/>
<path style=" stroke:none;fill-rule:nonzero;fill:rgb(0.799561%,0.799561%,0.799561%);fill-opacity:1;" d="M 0.574219 90.535156 L 13.925781 90.535156 L 13.925781 95.753906 L 8.457031 95.753906 L 8.457031 100.703125 L 13.328125 100.703125 L 13.328125 105.664063 L 8.457031 105.664063 L 8.457031 116.621094 L 0.574219 116.621094 L 0.574219 90.535156 "/>
<g clip-path="url(#clip1)" clip-rule="nonzero">
<path style=" stroke:none;fill-rule:nonzero;fill:rgb(0.799561%,0.799561%,0.799561%);fill-opacity:1;" d="M 25.96875 97.238281 C 25.96875 96.023438 25.890625 95.25 25.734375 94.910156 C 25.582031 94.570313 25.257813 94.402344 24.773438 94.402344 C 24.359375 94.402344 24.042969 94.539063 23.824219 94.8125 C 23.605469 95.085938 23.496094 95.894531 23.496094 97.238281 L 23.496094 109.417969 C 23.496094 110.933594 23.570313 111.867188 23.714844 112.222656 C 23.855469 112.578125 24.191406 112.753906 24.714844 112.753906 C 25.253906 112.753906 25.59375 112.550781 25.746094 112.144531 C 25.894531 111.734375 25.96875 110.761719 25.96875 109.226563 Z M 33.855469 105.808594 C 33.855469 108.433594 33.78125 110.289063 33.640625 111.378906 C 33.496094 112.46875 33.046875 113.464844 32.289063 114.367188 C 31.535156 115.269531 30.515625 115.960938 29.230469 116.445313 C 27.941406 116.929688 26.445313 117.171875 24.734375 117.171875 C 23.109375 117.171875 21.652344 116.941406 20.359375 116.484375 C 19.070313 116.027344 18.03125 115.34375 17.242188 114.429688 C 16.457031 113.519531 15.988281 112.523438 15.839844 111.449219 C 15.6875 110.375 15.613281 108.496094 15.613281 105.808594 L 15.613281 101.347656 C 15.613281 98.726563 15.683594 96.871094 15.828125 95.78125 C 15.972656 94.691406 16.421875 93.691406 17.175781 92.789063 C 17.933594 91.886719 18.953125 91.195313 20.238281 90.710938 C 21.523438 90.226563 23.023438 89.988281 24.734375 89.988281 C 26.355469 89.988281 27.816406 90.214844 29.105469 90.671875 C 30.398438 91.128906 31.4375 91.8125 32.226563 92.726563 C 33.011719 93.640625 33.480469 94.632813 33.628906 95.707031 C 33.78125 96.78125 33.855469 98.660156 33.855469 101.347656 L 33.855469 105.808594 "/>
</g>
<path style=" stroke:none;fill-rule:nonzero;fill:rgb(0.799561%,0.799561%,0.799561%);fill-opacity:1;" d="M 44.679688 95 L 44.679688 100.800781 C 45.566406 100.800781 46.1875 100.695313 46.542969 100.484375 C 46.898438 100.273438 47.078125 99.597656 47.078125 98.445313 L 47.078125 97.011719 C 47.078125 96.1875 46.90625 95.644531 46.5625 95.386719 C 46.21875 95.128906 45.59375 95 44.679688 95 Z M 36.796875 90.535156 L 42.375 90.535156 C 46.097656 90.535156 48.617188 90.660156 49.933594 90.90625 C 51.25 91.152344 52.324219 91.785156 53.15625 92.800781 C 53.984375 93.8125 54.402344 95.433594 54.402344 97.65625 C 54.402344 99.6875 54.105469 101.050781 53.519531 101.75 C 52.933594 102.449219 51.777344 102.867188 50.054688 103.007813 C 51.617188 103.339844 52.664063 103.785156 53.203125 104.34375 C 53.738281 104.902344 54.074219 105.414063 54.203125 105.882813 C 54.335938 106.351563 54.402344 107.636719 54.402344 109.742188 L 54.402344 116.621094 L 47.078125 116.621094 L 47.078125 107.953125 C 47.078125 106.558594 46.949219 105.691406 46.695313 105.359375 C 46.4375 105.027344 45.765625 104.859375 44.679688 104.859375 L 44.679688 116.621094 L 36.796875 116.621094 L 36.796875 90.535156 "/>
<g clip-path="url(#clip2)" clip-rule="nonzero">
<path style=" stroke:none;fill-rule:nonzero;fill:rgb(0.799561%,0.799561%,0.799561%);fill-opacity:1;" d="M 75.546875 100.136719 L 67.660156 100.136719 L 67.660156 97.769531 C 67.660156 96.277344 67.585938 95.34375 67.4375 94.964844 C 67.285156 94.589844 66.929688 94.402344 66.367188 94.402344 C 65.882813 94.402344 65.550781 94.5625 65.375 94.886719 C 65.203125 95.207031 65.113281 96.035156 65.113281 97.367188 L 65.113281 109.886719 C 65.113281 111.058594 65.203125 111.828125 65.375 112.199219 C 65.550781 112.570313 65.902344 112.753906 66.425781 112.753906 C 67 112.753906 67.390625 112.546875 67.59375 112.125 C 67.800781 111.707031 67.90625 110.890625 67.90625 109.675781 L 67.90625 106.582031 L 66.3125 106.582031 L 66.3125 102.621094 L 75.546875 102.621094 L 75.546875 116.621094 L 70.589844 116.621094 L 69.859375 114.753906 C 69.324219 115.558594 68.644531 116.164063 67.828125 116.566406 C 67.007813 116.96875 66.042969 117.171875 64.933594 117.171875 C 63.605469 117.171875 62.367188 116.894531 61.210938 116.339844 C 60.054688 115.789063 59.179688 115.101563 58.578125 114.285156 C 57.976563 113.46875 57.601563 112.613281 57.453125 111.714844 C 57.304688 110.816406 57.230469 109.472656 57.230469 107.679688 L 57.230469 99.929688 C 57.230469 97.4375 57.386719 95.625 57.699219 94.5 C 58.007813 93.371094 58.90625 92.335938 60.386719 91.398438 C 61.863281 90.457031 63.777344 89.988281 66.125 89.988281 C 68.433594 89.988281 70.351563 90.394531 71.875 91.210938 C 73.398438 92.027344 74.390625 92.996094 74.851563 94.121094 C 75.316406 95.242188 75.546875 96.875 75.546875 99.011719 L 75.546875 100.136719 "/>
</g>
<path style=" stroke:none;fill-rule:nonzero;fill:rgb(0.799561%,0.799561%,0.799561%);fill-opacity:1;" d="M 85.484375 90.535156 L 85.484375 116.621094 L 77.597656 116.621094 L 77.597656 90.535156 L 85.484375 90.535156 "/>
<path style=" stroke:none;fill-rule:nonzero;fill:rgb(0.799561%,0.799561%,0.799561%);fill-opacity:1;" d="M 107.253906 90.535156 L 107.253906 116.621094 L 100.34375 116.621094 L 96.242188 104.761719 L 96.242188 116.621094 L 89.648438 116.621094 L 89.648438 90.535156 L 96.242188 90.535156 L 100.660156 102.28125 L 100.660156 90.535156 L 107.253906 90.535156 "/>
<g clip-path="url(#clip3)" clip-rule="nonzero">
<path style=" stroke:none;fill-rule:nonzero;fill:rgb(0.799561%,0.799561%,0.799561%);fill-opacity:1;" d="M 128.511719 100.136719 L 120.625 100.136719 L 120.625 97.769531 C 120.625 96.277344 120.550781 95.34375 120.402344 94.964844 C 120.25 94.589844 119.894531 94.402344 119.335938 94.402344 C 118.847656 94.402344 118.515625 94.5625 118.339844 94.886719 C 118.167969 95.207031 118.078125 96.035156 118.078125 97.367188 L 118.078125 109.886719 C 118.078125 111.058594 118.167969 111.828125 118.339844 112.199219 C 118.515625 112.570313 118.867188 112.753906 119.390625 112.753906 C 119.964844 112.753906 120.355469 112.546875 120.5625 112.125 C 120.765625 111.707031 120.871094 110.890625 120.871094 109.675781 L 120.871094 106.582031 L 119.277344 106.582031 L 119.277344 102.621094 L 128.511719 102.621094 L 128.511719 116.621094 L 123.554688 116.621094 L 122.828125 114.753906 C 122.289063 115.558594 121.609375 116.164063 120.792969 116.566406 C 119.976563 116.96875 119.011719 117.171875 117.898438 117.171875 C 116.574219 117.171875 115.332031 116.894531 114.175781 116.339844 C 113.019531 115.789063 112.144531 115.101563 111.542969 114.285156 C 110.945313 113.46875 110.570313 112.613281 110.417969 111.714844 C 110.269531 110.816406 110.195313 109.472656 110.195313 107.679688 L 110.195313 99.929688 C 110.195313 97.4375 110.351563 95.625 110.664063 94.5 C 110.972656 93.371094 111.871094 92.335938 113.351563 91.398438 C 114.828125 90.457031 116.742188 89.988281 119.089844 89.988281 C 121.398438 89.988281 123.316406 90.394531 124.839844 91.210938 C 126.363281 92.027344 127.355469 92.996094 127.816406 94.121094 C 128.28125 95.242188 128.511719 96.875 128.511719 99.011719 L 128.511719 100.136719 "/>
</g>
<path style=" stroke:none;fill-rule:nonzero;fill:rgb(0.799561%,0.799561%,0.799561%);fill-opacity:1;" d="M 138.324219 90.535156 L 151.472656 90.535156 L 151.472656 95.753906 L 146.210938 95.753906 L 146.210938 100.703125 L 151.136719 100.703125 L 151.136719 105.664063 L 146.210938 105.664063 L 146.210938 111.402344 L 151.996094 111.402344 L 151.996094 116.621094 L 138.324219 116.621094 L 138.324219 90.535156 "/>
<path style=" stroke:none;fill-rule:nonzero;fill:rgb(0.799561%,0.799561%,0.799561%);fill-opacity:1;" d="M 162.148438 90.535156 L 162.148438 111.402344 L 166.941406 111.402344 L 166.941406 116.621094 L 154.261719 116.621094 L 154.261719 90.535156 L 162.148438 90.535156 "/>
<path style=" stroke:none;fill-rule:nonzero;fill:rgb(0.799561%,0.799561%,0.799561%);fill-opacity:1;" d="M 176.738281 90.535156 L 176.738281 116.621094 L 168.851563 116.621094 L 168.851563 90.535156 L 176.738281 90.535156 "/>
<path style=" stroke:none;fill-rule:nonzero;fill:rgb(0.799561%,0.799561%,0.799561%);fill-opacity:1;" d="M 196.785156 90.535156 L 196.785156 95.753906 L 192.105469 95.753906 L 192.105469 116.621094 L 184.21875 116.621094 L 184.21875 95.753906 L 179.554688 95.753906 L 179.554688 90.535156 L 196.785156 90.535156 "/>
<path style=" stroke:none;fill-rule:nonzero;fill:rgb(0.799561%,0.799561%,0.799561%);fill-opacity:1;" d="M 198.582031 90.535156 L 211.730469 90.535156 L 211.730469 95.753906 L 206.46875 95.753906 L 206.46875 100.703125 L 211.394531 100.703125 L 211.394531 105.664063 L 206.46875 105.664063 L 206.46875 111.402344 L 212.253906 111.402344 L 212.253906 116.621094 L 198.582031 116.621094 L 198.582031 90.535156 "/>
<path style=" stroke:none;fill-rule:nonzero;fill:rgb(0.799561%,0.799561%,0.799561%);fill-opacity:1;" d="M 221.28125 90.535156 L 234.636719 90.535156 L 234.636719 95.753906 L 229.167969 95.753906 L 229.167969 100.703125 L 234.039063 100.703125 L 234.039063 105.664063 L 229.167969 105.664063 L 229.167969 116.621094 L 221.28125 116.621094 L 221.28125 90.535156 "/>
<path style=" stroke:none;fill-rule:nonzero;fill:rgb(0.799561%,0.799561%,0.799561%);fill-opacity:1;" d="M 244.433594 90.535156 L 244.433594 116.621094 L 236.546875 116.621094 L 236.546875 90.535156 L 244.433594 90.535156 "/>
<path style=" stroke:none;fill-rule:nonzero;fill:rgb(0.799561%,0.799561%,0.799561%);fill-opacity:1;" d="M 264.480469 90.535156 L 264.480469 95.753906 L 259.796875 95.753906 L 259.796875 116.621094 L 251.910156 116.621094 L 251.910156 95.753906 L 247.246094 95.753906 L 247.246094 90.535156 L 264.480469 90.535156 "/>
<path style=" stroke:none;fill-rule:nonzero;fill:rgb(0.799561%,0.799561%,0.799561%);fill-opacity:1;" d="M 283.882813 90.535156 L 283.882813 116.621094 L 276.972656 116.621094 L 272.871094 104.761719 L 272.871094 116.621094 L 266.277344 116.621094 L 266.277344 90.535156 L 272.871094 90.535156 L 277.289063 102.28125 L 277.289063 90.535156 L 283.882813 90.535156 "/>
<path style=" stroke:none;fill-rule:nonzero;fill:rgb(0.799561%,0.799561%,0.799561%);fill-opacity:1;" d="M 287.046875 90.535156 L 300.195313 90.535156 L 300.195313 95.753906 L 294.933594 95.753906 L 294.933594 100.703125 L 299.859375 100.703125 L 299.859375 105.664063 L 294.933594 105.664063 L 294.933594 111.402344 L 300.71875 111.402344 L 300.71875 116.621094 L 287.046875 116.621094 L 287.046875 90.535156 "/>
<g clip-path="url(#clip4)" clip-rule="nonzero">
<path style=" stroke:none;fill-rule:nonzero;fill:rgb(0.799561%,0.799561%,0.799561%);fill-opacity:1;" d="M 318.691406 98.429688 L 311.367188 98.429688 L 311.367188 96.496094 C 311.367188 95.59375 311.273438 95.019531 311.089844 94.773438 C 310.898438 94.527344 310.589844 94.402344 310.152344 94.402344 C 309.675781 94.402344 309.316406 94.570313 309.074219 94.902344 C 308.832031 95.234375 308.710938 95.742188 308.710938 96.417969 C 308.710938 97.289063 308.847656 97.945313 309.117188 98.386719 C 309.382813 98.824219 310.125 99.359375 311.347656 99.980469 C 314.855469 101.769531 317.066406 103.242188 317.980469 104.390625 C 318.890625 105.542969 319.347656 107.394531 319.347656 109.949219 C 319.347656 111.808594 319.09375 113.179688 318.589844 114.058594 C 318.082031 114.941406 317.105469 115.679688 315.65625 116.273438 C 314.210938 116.871094 312.523438 117.171875 310.601563 117.171875 C 308.488281 117.171875 306.6875 116.824219 305.195313 116.140625 C 303.703125 115.449219 302.730469 114.574219 302.265625 113.511719 C 301.804688 112.449219 301.574219 110.9375 301.574219 108.984375 L 301.574219 107.277344 L 308.894531 107.277344 L 308.894531 110.449219 C 308.894531 111.429688 309 112.058594 309.203125 112.335938 C 309.410156 112.613281 309.777344 112.753906 310.300781 112.753906 C 310.824219 112.753906 311.214844 112.578125 311.472656 112.222656 C 311.726563 111.867188 311.855469 111.34375 311.855469 110.644531 C 311.855469 109.109375 311.613281 108.101563 311.125 107.632813 C 310.625 107.15625 309.394531 106.367188 307.4375 105.261719 C 305.476563 104.144531 304.175781 103.335938 303.539063 102.828125 C 302.902344 102.324219 302.375 101.625 301.957031 100.734375 C 301.539063 99.84375 301.328125 98.703125 301.328125 97.320313 C 301.328125 95.320313 301.625 93.859375 302.21875 92.9375 C 302.8125 92.011719 303.769531 91.289063 305.09375 90.769531 C 306.417969 90.246094 308.015625 89.988281 309.890625 89.988281 C 311.9375 89.988281 313.683594 90.273438 315.125 90.839844 C 316.566406 91.410156 317.519531 92.128906 317.988281 92.992188 C 318.457031 93.855469 318.691406 95.328125 318.691406 97.398438 L 318.691406 98.429688 "/>
</g>
<g clip-path="url(#clip5)" clip-rule="nonzero">
<path style=" stroke:none;fill-rule:nonzero;fill:rgb(0.799561%,0.799561%,0.799561%);fill-opacity:1;" d="M 338.523438 98.429688 L 331.203125 98.429688 L 331.203125 96.496094 C 331.203125 95.59375 331.109375 95.019531 330.921875 94.773438 C 330.734375 94.527344 330.421875 94.402344 329.984375 94.402344 C 329.511719 94.402344 329.152344 94.570313 328.90625 94.902344 C 328.664063 95.234375 328.542969 95.742188 328.542969 96.417969 C 328.542969 97.289063 328.679688 97.945313 328.953125 98.386719 C 329.214844 98.824219 329.957031 99.359375 331.183594 99.980469 C 334.691406 101.769531 336.902344 103.242188 337.8125 104.390625 C 338.726563 105.542969 339.179688 107.394531 339.179688 109.949219 C 339.179688 111.808594 338.929688 113.179688 338.421875 114.058594 C 337.917969 114.941406 336.9375 115.679688 335.492188 116.273438 C 334.042969 116.871094 332.355469 117.171875 330.433594 117.171875 C 328.324219 117.171875 326.523438 116.824219 325.03125 116.140625 C 323.539063 115.449219 322.5625 114.574219 322.101563 113.511719 C 321.636719 112.449219 321.40625 110.9375 321.40625 108.984375 L 321.40625 107.277344 L 328.730469 107.277344 L 328.730469 110.449219 C 328.730469 111.429688 328.832031 112.058594 329.039063 112.335938 C 329.246094 112.613281 329.609375 112.753906 330.136719 112.753906 C 330.660156 112.753906 331.050781 112.578125 331.304688 112.222656 C 331.5625 111.867188 331.6875 111.34375 331.6875 110.644531 C 331.6875 109.109375 331.445313 108.101563 330.960938 107.632813 C 330.460938 107.15625 329.230469 106.367188 327.269531 105.261719 C 325.308594 104.144531 324.011719 103.335938 323.375 102.828125 C 322.738281 102.324219 322.210938 101.625 321.789063 100.734375 C 321.371094 99.84375 321.164063 98.703125 321.164063 97.320313 C 321.164063 95.320313 321.460938 93.859375 322.054688 92.9375 C 322.644531 92.011719 323.605469 91.289063 324.929688 90.769531 C 326.253906 90.246094 327.851563 89.988281 329.722656 89.988281 C 331.769531 89.988281 333.515625 90.273438 334.957031 90.839844 C 336.398438 91.410156 337.355469 92.128906 337.824219 92.992188 C 338.289063 93.855469 338.523438 95.328125 338.523438 97.398438 L 338.523438 98.429688 "/>
</g>
</g>
</svg>
